<?xml version="1.0" encoding="UTF-8"?>
<svg viewBox="0 0 158 63" xmlns="http://www.w3.org/2000/svg">
  <path d="m82.961 52.78v-15.512l-16.732-6.985 8.7818-9.1914-11.509-11.003-3.2641 6.7346 0.1252-6.4744-14.586 5.0195 0.3756 8.4399 2.4772-0.6937 2.5755 29.78 10.284-1.6282-0.0179-9.9428 21.489 11.455z" clip-rule="evenodd" fill="#0B0000" fill-rule="evenodd"/>
  <path d="m48.523 17.533 8.8623-2.8422 0.5455 9.8368 6.5282-9.8754 6.3762 6.5419-8.9159 10.126 18.35 7.8329v9.0082l-21.32-11.494 0.0358 12.043-5.5177 0.8093-2.352-30.127-2.486 0.6937-0.1074-2.5531z" clip-rule="evenodd" fill="#fff" fill-rule="evenodd"/>
  <path d="m115.72 11.57h-9.658l-0.277 1.7053h-10.159l-4.7486 31.283 11.59 1.9655 0.635-4.4897 3.031 6.0216 1.843-3.8442 0.679 6.3106 13.137 2.4953-6.072-41.448z" clip-rule="evenodd" fill="#0B0000" fill-rule="evenodd"/>
  <path d="m108.6 14.461h4.919l4.981 34.848-7.262-1.1946-1.931-13.787-2.728 7.6016-4.096-9.4996h-0.044l-1.619 11.012-6.8054-1.2814 4.0511-26.09h6.8863l1.717 10.116 1.931-11.725z" clip-rule="evenodd" fill="#fff" fill-rule="evenodd"/>
  <path d="m128.02 14.422 14.532 3.4395 1.082 5.7807 1.172-5.2123 12.367 3.2276-11.875 38.548-9.113-3.0926-0.072-3.8635-8.746-1.3199 2.951-28.287-2.191-0.5299-0.107-8.6903z" clip-rule="evenodd" fill="#0B0000" fill-rule="evenodd"/>
  <path d="m130.6 18.035 9.47 2.0521 3.193 16.282 3.264-14.596 7.208 1.7246-10.15 33.123-5.044-1.6282-0.438-20.02-2.54 15.444-5.5-0.9345 2.469-28.046-2.075-0.5973 0.143-2.8036z" clip-rule="evenodd" fill="#fff" fill-rule="evenodd"/>
  <path d="m126.62 47.478c-3.139 1.2718-6.474 1.1272-9.157-0.4143-2.486-1.4162-4.221-3.873-4.892-6.9079-1.341-6.0505 2.37-12.958 8.272-15.396 3.175-1.2911 6.537-1.1369 9.238 0.4142 2.459 1.4067 4.176 3.8057 4.829 6.7538 1.368 6.1372-2.343 13.113-8.29 15.55z" clip-rule="evenodd" fill="#0B0000" fill-rule="evenodd"/>
  <path d="m132.61 32.489c-1.073-4.8558-5.884-7.2933-10.821-5.2893-4.784 1.975-7.923 7.5534-6.841 12.409 1.109 5.0099 5.876 7.4378 10.812 5.4339 4.82-1.9655 7.959-7.5824 6.85-12.554z" clip-rule="evenodd" fill="#fff" fill-rule="evenodd"/>
  <path d="m129.03 33.343c-0.099 2.6784-2.263 4.7017-4.91 4.5861-2.602-0.1157-4.605-2.3123-4.507-4.9907 0.098-2.5146 2.254-4.5379 4.901-4.4223 2.611 0.1157 4.614 2.3123 4.516 4.8269z" clip-rule="evenodd" fill="#0B0000" fill-rule="evenodd"/>
  <path d="m125.66 28.632c-1.583-0.0675-2.906 1.1079-2.969 2.6206-0.054 1.5126 1.181 2.8036 2.763 2.871 1.583 0.0675 2.907-1.1079 2.969-2.6205 0.054-1.5127-1.18-2.8037-2.763-2.8711z" clip-rule="evenodd" fill="#fff" fill-rule="evenodd"/>
  <path d="m46.502 50.854c-3.2104 1.4645-6.6892 1.4645-9.5419-0.0096-2.6381-1.3681-4.5429-3.8345-5.3567-6.9657-1.6276-6.2336 1.9585-13.585 8.0038-16.388 3.2462-1.4741 6.7517-1.4741 9.6224 0.0192 2.6112 1.3489 4.4892 3.7671 5.2851 6.802 1.6634 6.3202-1.9316 13.748-8.0127 16.542z" clip-rule="evenodd" fill="#0B0000" fill-rule="evenodd"/>
  <path d="m52.216 34.694c-1.3235-5.0485-6.4567-7.3801-11.554-5.0485-4.9454 2.293-8.0127 8.2857-6.6892 13.334 1.3593 5.2123 6.4566 7.5342 11.554 5.2123 4.9811-2.293 8.0485-8.3338 6.6892-13.498z" clip-rule="evenodd" fill="#fff" fill-rule="evenodd"/>
  <path d="m48.764 35.658c0 2.6784-2.0837 4.7884-4.7307 4.7884-2.6024 0-4.686-2.11-4.686-4.7884 0-2.5146 2.0836-4.6342 4.7307-4.6342 2.6023 0 4.686 2.11 4.686 4.6342z" clip-rule="evenodd" fill="#0B0000" fill-rule="evenodd"/>
  <path d="m45.234 31.09c-1.5829 0-2.8706 1.2333-2.8706 2.7459s1.2788 2.7458 2.8706 2.7458c1.5829 0 2.8706-1.2332 2.8706-2.7458s-1.2877-2.7459-2.8706-2.7459z" clip-rule="evenodd" fill="#fff" fill-rule="evenodd"/>
  <path d="m28.787 41.544c6.9038-5.4628 10.195-13.72 7.6997-19.914-1.091-2.7073-3.0047-4.9425-5.3477-6.3492-1.6455-1.1754-3.604-1.9172-5.6608-2.1677-5.0437-0.9538-11.098 0.0289-17.054 2.7555-2.191 1.0019-4.2389 2.1581-6.0811 3.4202l-2.343 1.5897 1.404 2.5628 4.3641 7.9484s1.3414 2.4472 1.3504 2.4376l2.3698-1.2429 0.33088-0.1734 10.848 26.1 1.0463 2.505 2.4324-0.8382 5.8754-2.0232 2.5755-0.8864-0.6796-2.8133-3.13-12.91z" clip-rule="evenodd" fill-rule="evenodd"/>
  <path d="m33.863 22.852c-0.8674-2.1485-2.3608-3.8346-4.3104-5.0196-1.4129-1.0116-3.0494-1.5126-4.5787-1.6957-4.3461-0.8189-9.7565-0.0481-15.453 2.5532-2.03 0.9249-3.9259 1.9847-5.6697 3.1794l4.3641 7.9484c1.1178-0.5877 2.3251-1.2139 2.978-1.5897l12.064 29.01 5.8754-2.0232-3.6218-15.011c6.9485-4.5957 10.454-12.14 8.3525-17.352z" clip-rule="evenodd" fill="#fff" fill-rule="evenodd"/>
  <path d="m95.582 30.486-4.1316-4.008 2.03-2.3219 1.8243-2.0907-1.6812-2.2255c-3.282-4.3548-8.5314-6.0987-14.04-4.6631-7.664 1.9847-11.983 9.0949-10.275 16.889 0.6886 3.1409 2.513 5.8289 5.1511 7.5728 3.1478 2.0907 7.1095 2.6591 11.143 1.6089 4.2568-1.1079 7.3868-2.9674 10.132-6.0215l2.1999-2.4472-2.3519-2.293z" clip-rule="evenodd" fill="#0B0000" fill-rule="evenodd"/>
  <path d="m89.231 28.585c-1.0374 1.3199-2.2268 2.5242-4.3372 3.0734-0.7065 0.1831-1.6634 0.3565-2.2715 0.2409l8.8802-10.184c-2.504-3.3239-6.6177-4.8654-11.277-3.6515-5.7949 1.503-9.7118 6.7056-8.2631 13.334 1.1626 5.3278 6.6355 8.5939 12.985 6.9464 3.8454-1.0019 6.5193-2.6013 8.9159-5.27l-4.6323-4.4897z" clip-rule="evenodd" fill="#fff" fill-rule="evenodd"/>
  <path d="m75.359 13.498 10.874-13.498 6.0185 9.6827-13.745 7.9581-3.1478-4.1429z" clip-rule="evenodd" fill="#0B0000" fill-rule="evenodd"/>
  <path d="m85.769 4.2969 3.1837 4.6631-9.0948 4.8558-0.6349-1.0309 6.546-8.488z" clip-rule="evenodd" fill="#fff" fill-rule="evenodd"/>
  <path d="m79.03 28.74c-0.6528-1.2814-0.5276-2.9289 0.4472-4.0754 0.939-1.1079 2.3698-1.4259 3.595-0.9153l-4.0422 4.9907zm0.4472-4.0754c-0.9658 1.1465-1.1 2.794-0.4472 4.0754l4.0422-4.9907c-1.2252-0.5106-2.665-0.1926-3.595 0.9153zm5.8396-1.6667c-2.0747-2.0329-5.2762-1.8691-7.1631 0.3661-1.887 2.2352-1.7349 5.6843 0.3398 7.7172 0.1699 0.1734 0.3577 0.3179 0.5455 0.4528l6.6444-8.1508c-0.1252-0.1348-0.2414-0.2601-0.3666-0.3853zm-6.2868 5.7421c-0.6528-1.2814-0.5276-2.9289 0.4472-4.0754 0.939-1.1079 2.3698-1.4259 3.595-0.9153l-4.0422 4.9907z" clip-rule="evenodd" fill-rule="evenodd"/>
  <path d="m29.298 27.813c-0.5187-3.0734-4.23-4.7979-7.9501-2.6495l0.93 3.5263 1.4666 5.2026 0.6707 2.3701c2.7902-1.898 5.5982-4.191 4.8828-8.4495zm-3.6934 4.7017c-0.4024-1.4259-1.2699-4.4993-1.2699-4.4993 9e-3 0.0192-0.1788-0.6648-0.3756-1.4259 0.787-0.1542 1.5382-0.0771 2.1642 0.2505 0.3488 0.183 0.9479 0.5973 1.0731 1.3873 0.2951 1.7631-0.2683 3.0252-1.5918 4.2874z" clip-rule="evenodd" fill-rule="evenodd"/>
  <path d="m30.891 62.894c9e-3 0.0289 0.0179 0.0482 0.0268 0.0771 0 0.0096 9e-3 0.0193 9e-3 0.0289-0.0089-0.0385-0.0268-0.0674-0.0358-0.106z" clip-rule="evenodd" fill-rule="evenodd"/>
  <path d="m147.91 56.711h2.674v0.424h-1.109v3.1312h-0.456v-3.1312h-1.109v-0.424z" clip-rule="evenodd" fill-rule="evenodd"/>
  <path d="m150.98 60.266v-3.5552h0.644l0.948 3.006 0.939-3.006h0.635v3.5552h-0.42v-2.1004c0-0.077 0-0.1926 9e-3 -0.3564v-0.5396l-0.939 2.9964h-0.438l-0.948-2.9964v0.106c0 0.0867 0 0.2216 9e-3 0.395 0 0.1735 9e-3 0.3083 9e-3 0.395v2.1004h-0.448z" clip-rule="evenodd" fill-rule="evenodd"/>
</svg>
